<?xml version="1.0" encoding="us-ascii" standalone="no"?><svg xmlns="http://www.w3.org/2000/svg" xmlns:xlink="http://www.w3.org/1999/xlink" contentStyleType="text/css" height="1377.0833px" preserveAspectRatio="none" style="width:3107px;height:1377px;" version="1.1" viewBox="0 0 3107 1377" width="3107.2917px" zoomAndPan="magnify"><defs><linearGradient id="gk7z3gkzuix7i0" x1="50%" x2="50%" y1="0%" y2="100%"><stop offset="0%" stop-color="#F5F5F5"/><stop offset="100%" stop-color="#F2F2F2"/></linearGradient><linearGradient id="gk7z3gkzuix7i1" x1="50%" x2="50%" y1="0%" y2="100%"><stop offset="0%" stop-color="#33B2E2"/><stop offset="100%" stop-color="#009FDB"/></linearGradient></defs><g><rect fill="url(#gk7z3gkzuix7i0)" height="79.8055" id="_title" rx="4.1667" ry="4.1667" style="stroke:#C2C2C2;stroke-width:1.0416666666666667;" width="215.625" x="1441.4063" y="20.8333"/><text fill="#000000" font-family="Verdana" font-size="41.6667" font-weight="bold" lengthAdjust="spacing" textLength="186.4583" x="1455.9896" y="77.3071">Indexer</text><!--cluster Router--><g id="cluster_Router"><path d="M239.0625,118.3472 L359.8958,118.3472 A15.625,15.625 0 0 1 370.3125,128.7638 L377.6042,179.243 L823.4375,179.243 A10.4167,10.4167 0 0 1 833.8542,189.6596 L833.8542,918.1701 A10.4167,10.4167 0 0 1 823.4375,928.5868 L239.0625,928.5868 A10.4167,10.4167 0 0 1 228.6458,918.1701 L228.6458,128.7638 A10.4167,10.4167 0 0 1 239.0625,118.3472 " fill="none" style="stroke:#000000;stroke-width:2.0833333333333335;"/><line style="stroke:#000000;stroke-width:2.0833333333333335;" x1="228.6458" x2="377.6042" y1="179.243" y2="179.243"/><text fill="#2F4F4F" font-family="Verdana" font-size="31.25" font-weight="bold" lengthAdjust="spacing" textLength="118.75" x="241.1458" y="160.1817">Router</text></g><!--cluster QueryHandler--><g id="cluster_QueryHandler"><path d="M885.9375,234.9722 L1131.7708,234.9722 A15.625,15.625 0 0 1 1142.1875,245.3888 L1149.4792,295.868 L2577.6042,295.868 A10.4167,10.4167 0 0 1 2588.0208,306.2846 L2588.0208,400.993 A10.4167,10.4167 0 0 1 2577.6042,411.4097 L885.9375,411.4097 A10.4167,10.4167 0 0 1 875.5208,400.993 L875.5208,245.3888 A10.4167,10.4167 0 0 1 885.9375,234.9722 " fill="none" style="stroke:#000000;stroke-width:2.0833333333333335;"/><line style="stroke:#000000;stroke-width:2.0833333333333335;" x1="875.5208" x2="1149.4792" y1="295.868" y2="295.868"/><text fill="#2F4F4F" font-family="Verdana" font-size="31.25" font-weight="bold" lengthAdjust="spacing" textLength="243.75" x="888.0208" y="276.8067">QueryHandler</text></g><!--cluster AttestationSigners--><g id="cluster_AttestationSigners"><path d="M1666.1458,699.6701 L1996.3542,699.6701 A15.625,15.625 0 0 1 2006.7708,710.0868 L2014.0625,760.5659 L2331.7708,760.5659 A10.4167,10.4167 0 0 1 2342.1875,770.9825 L2342.1875,1136.2847 A10.4167,10.4167 0 0 1 2331.7708,1146.7013 L1666.1458,1146.7013 A10.4167,10.4167 0 0 1 1655.7292,1136.2847 L1655.7292,710.0868 A10.4167,10.4167 0 0 1 1666.1458,699.6701 " fill="none" style="stroke:#000000;stroke-width:2.0833333333333335;"/><line style="stroke:#000000;stroke-width:2.0833333333333335;" x1="1655.7292" x2="2014.0625" y1="760.5659" y2="760.5659"/><text fill="#2F4F4F" font-family="Verdana" font-size="31.25" font-weight="bold" lengthAdjust="spacing" textLength="328.125" x="1668.2292" y="741.5046">AttestationSigners</text></g><!--cluster TAP--><g id="cluster_TAP"><path d="M624.4792,970.2534 L694.2708,970.2534 A15.625,15.625 0 0 1 704.6875,980.6701 L711.9792,1031.1492 L1603.6458,1031.1492 A10.4167,10.4167 0 0 1 1614.0625,1041.5659 L1614.0625,1354.3888 A10.4167,10.4167 0 0 1 1603.6458,1364.8055 L624.4792,1364.8055 A10.4167,10.4167 0 0 1 614.0625,1354.3888 L614.0625,980.6701 A10.4167,10.4167 0 0 1 624.4792,970.2534 " fill="none" style="stroke:#000000;stroke-width:2.0833333333333335;"/><line style="stroke:#000000;stroke-width:2.0833333333333335;" x1="614.0625" x2="711.9792" y1="1031.1492" y2="1031.1492"/><text fill="#2F4F4F" font-family="Verdana" font-size="31.25" font-weight="bold" lengthAdjust="spacing" textLength="67.7083" x="626.5625" y="1012.0879">TAP</text></g><!--cluster AllocationMonitor--><g id="cluster_AllocationMonitor"><path d="M1666.1458,1188.368 L1978.6458,1188.368 A15.625,15.625 0 0 1 1989.0625,1198.7847 L1996.3542,1249.2638 L2213.0208,1249.2638 A10.4167,10.4167 0 0 1 2223.4375,1259.6805 L2223.4375,1354.3888 A10.4167,10.4167 0 0 1 2213.0208,1364.8055 L1666.1458,1364.8055 A10.4167,10.4167 0 0 1 1655.7292,1354.3888 L1655.7292,1198.7847 A10.4167,10.4167 0 0 1 1666.1458,1188.368 " fill="none" style="stroke:#000000;stroke-width:2.0833333333333335;"/><line style="stroke:#000000;stroke-width:2.0833333333333335;" x1="1655.7292" x2="1996.3542" y1="1249.2638" y2="1249.2638"/><text fill="#2F4F4F" font-family="Verdana" font-size="31.25" font-weight="bold" lengthAdjust="spacing" textLength="310.4167" x="1668.2292" y="1230.2025">AllocationMonitor</text></g><!--cluster EscrowMonitor--><g id="cluster_EscrowMonitor"><path d="M2394.2708,970.2534 L2657.8125,970.2534 A15.625,15.625 0 0 1 2668.2292,980.6701 L2675.5208,1031.1492 L3084.8958,1031.1492 A10.4167,10.4167 0 0 1 3095.3125,1041.5659 L3095.3125,1136.2847 A10.4167,10.4167 0 0 1 3084.8958,1146.7013 L2394.2708,1146.7013 A10.4167,10.4167 0 0 1 2383.8542,1136.2847 L2383.8542,980.6701 A10.4167,10.4167 0 0 1 2394.2708,970.2534 " fill="none" style="stroke:#000000;stroke-width:2.0833333333333335;"/><line style="stroke:#000000;stroke-width:2.0833333333333335;" x1="2383.8542" x2="2675.5208" y1="1031.1492" y2="1031.1492"/><text fill="#2F4F4F" font-family="Verdana" font-size="31.25" font-weight="bold" lengthAdjust="spacing" textLength="261.4583" x="2396.3542" y="1012.0879">EscrowMonitor</text></g><g id="elem_r1"><rect fill="url(#gk7z3gkzuix7i1)" height="302.3956" rx="10.4167" ry="10.4167" style="stroke:#33B2E2;stroke-width:1.0416666666666667;" width="534.375" x="273.9583" y="200.6388"/><text fill="#000000" font-family="Verdana" font-size="26.0417" lengthAdjust="spacing" textLength="129.1667" x="476.5625" y="237.237">endpoints</text><line style="stroke:#33B2E2;stroke-width:1.0416666666666667;" x1="275" x2="807.2917" y1="253.1214" y2="253.1214"/><text fill="#000000" font-family="Verdana" font-size="26.0417" lengthAdjust="spacing" textLength="375" x="288.5417" y="291.803">/cost -&gt; serve agora models</text><text fill="#000000" font-family="Verdana" font-size="26.0417" lengthAdjust="spacing" textLength="505.2083" x="288.5417" y="340.1189">/status -&gt; graph node indexing status</text><text fill="#000000" font-family="Verdana" font-size="26.0417" lengthAdjust="spacing" textLength="473.9583" x="288.5417" y="388.4349">/version -&gt; version + dependencies</text><text fill="#000000" font-family="Verdana" font-size="26.0417" lengthAdjust="spacing" textLength="358.3333" x="288.5417" y="436.7508">/info -&gt; public key address</text><text fill="#000000" font-family="Verdana" font-size="26.0417" lengthAdjust="spacing" textLength="422.9167" x="288.5417" y="485.0667">/metrics -&gt; prometheus metrics</text></g><g id="elem_r2"><rect fill="url(#gk7z3gkzuix7i1)" height="109.1319" rx="10.4167" ry="10.4167" style="stroke:#33B2E2;stroke-width:1.0416666666666667;" width="516.6667" x="282.8125" y="565.5347"/><text fill="#000000" font-family="Verdana" font-size="26.0417" lengthAdjust="spacing" textLength="205.2083" x="438.5417" y="602.1329">data subgraphs</text><line style="stroke:#33B2E2;stroke-width:1.0416666666666667;" x1="283.8542" x2="798.4375" y1="618.0173" y2="618.0173"/><text fill="#000000" font-family="Verdana" font-size="26.0417" lengthAdjust="spacing" textLength="487.5" x="297.3958" y="656.6988">/subgraphs/id/:id -&gt; data subgraphs</text></g><g id="elem_r3"><rect fill="url(#gk7z3gkzuix7i1)" height="157.4478" rx="10.4167" ry="10.4167" style="stroke:#33B2E2;stroke-width:1.0416666666666667;" width="469.7917" x="306.25" y="737.8055"/><text fill="#000000" font-family="Verdana" font-size="26.0417" lengthAdjust="spacing" textLength="334.375" x="373.9583" y="774.4037">serve network subgraphs</text><line style="stroke:#33B2E2;stroke-width:1.0416666666666667;" x1="307.2917" x2="775" y1="790.2881" y2="790.2881"/><text fill="#000000" font-family="Verdana" font-size="26.0417" lengthAdjust="spacing" textLength="440.625" x="320.8333" y="828.9696">/network          -&gt; serve network</text><text fill="#000000" font-family="Verdana" font-size="26.0417" lengthAdjust="spacing" textLength="418.75" x="320.8333" y="877.2856">/escrow           -&gt; serve escrow</text></g><g id="elem_q1"><rect fill="url(#gk7z3gkzuix7i1)" height="69.1493" rx="10.4167" ry="10.4167" style="stroke:#000000;stroke-width:1.0416666666666667;" width="423.9583" x="2118.75" y="317.2638"/><text fill="#000000" font-family="Verdana" font-size="26.0417" lengthAdjust="spacing" textLength="392.7083" x="2134.375" y="353.862">scalar receipt header decoder</text><line style="stroke:#000000;stroke-width:1.0416666666666667;" x1="2119.7917" x2="2541.6667" y1="369.7464" y2="369.7464"/></g><g id="elem_q2"><rect fill="url(#gk7z3gkzuix7i1)" height="69.1493" rx="10.4167" ry="10.4167" style="stroke:#33B2E2;stroke-width:1.0416666666666667;" width="340.625" x="901.0417" y="317.2638"/><text fill="#000000" font-family="Verdana" font-size="26.0417" lengthAdjust="spacing" textLength="309.375" x="916.6667" y="353.862">verify and store receipt</text><line style="stroke:#33B2E2;stroke-width:1.0416666666666667;" x1="902.0833" x2="1240.625" y1="369.7464" y2="369.7464"/></g><g id="elem_q3"><rect fill="url(#gk7z3gkzuix7i1)" height="69.1493" rx="10.4167" ry="10.4167" style="stroke:#33B2E2;stroke-width:1.0416666666666667;" width="216.6667" x="1278.6458" y="317.2638"/><text fill="#000000" font-family="Verdana" font-size="26.0417" lengthAdjust="spacing" textLength="185.4167" x="1294.2708" y="353.862">process query</text><line style="stroke:#33B2E2;stroke-width:1.0416666666666667;" x1="1279.6875" x2="1494.2708" y1="369.7464" y2="369.7464"/></g><g id="elem_q4"><rect fill="url(#gk7z3gkzuix7i1)" height="69.1493" rx="10.4167" ry="10.4167" style="stroke:#33B2E2;stroke-width:1.0416666666666667;" width="264.5833" x="1531.7708" y="317.2638"/><text fill="#000000" font-family="Verdana" font-size="26.0417" lengthAdjust="spacing" textLength="233.3333" x="1547.3958" y="353.862">create attestation</text><line style="stroke:#33B2E2;stroke-width:1.0416666666666667;" x1="1532.8125" x2="1795.3125" y1="369.7464" y2="369.7464"/></g><g id="elem_q5"><rect fill="url(#gk7z3gkzuix7i1)" height="69.1493" rx="10.4167" ry="10.4167" style="stroke:#33B2E2;stroke-width:1.0416666666666667;" width="250" x="1832.8125" y="317.2638"/><text fill="#000000" font-family="Verdana" font-size="26.0417" lengthAdjust="spacing" textLength="218.75" x="1848.4375" y="353.862">return the result</text><line style="stroke:#33B2E2;stroke-width:1.0416666666666667;" x1="1833.8542" x2="2081.7708" y1="369.7464" y2="369.7464"/></g><g id="elem_a1"><rect fill="url(#gk7z3gkzuix7i1)" height="69.1493" rx="10.4167" ry="10.4167" style="stroke:#000000;stroke-width:1.0416666666666667;" width="254.1667" x="1898.4375" y="781.9618"/><text fill="#000000" font-family="Verdana" font-size="26.0417" lengthAdjust="spacing" textLength="222.9167" x="1914.0625" y="818.56">dispute manager</text><line style="stroke:#000000;stroke-width:1.0416666666666667;" x1="1899.4792" x2="2151.5625" y1="834.4444" y2="834.4444"/></g><g id="elem_a2"><rect fill="url(#gk7z3gkzuix7i1)" height="69.1493" rx="10.4167" ry="10.4167" style="stroke:#33B2E2;stroke-width:1.0416666666666667;" width="344.7917" x="1688.5417" y="1052.5451"/><text fill="#000000" font-family="Verdana" font-size="26.0417" lengthAdjust="spacing" textLength="313.5417" x="1704.1667" y="1089.1433">get signer for allocation</text><line style="stroke:#33B2E2;stroke-width:1.0416666666666667;" x1="1689.5833" x2="2032.2917" y1="1105.0277" y2="1105.0277"/></g><g id="elem_a3"><rect fill="url(#gk7z3gkzuix7i1)" height="69.1493" rx="10.4167" ry="10.4167" style="stroke:#33B2E2;stroke-width:1.0416666666666667;" width="246.875" x="2069.7917" y="1052.5451"/><text fill="#000000" font-family="Verdana" font-size="26.0417" lengthAdjust="spacing" textLength="215.625" x="2085.4167" y="1089.1433">create signature</text><line style="stroke:#33B2E2;stroke-width:1.0416666666666667;" x1="2070.8333" x2="2315.625" y1="1105.0277" y2="1105.0277"/></g><g id="elem_t1"><rect fill="url(#gk7z3gkzuix7i1)" height="69.1493" rx="10.4167" ry="10.4167" style="stroke:#33B2E2;stroke-width:1.0416666666666667;" width="259.375" x="1042.7083" y="1052.5451"/><text fill="#000000" font-family="Verdana" font-size="26.0417" lengthAdjust="spacing" textLength="228.125" x="1058.3333" y="1089.1433">allocation eligible</text><line style="stroke:#33B2E2;stroke-width:1.0416666666666667;" x1="1043.75" x2="1301.0417" y1="1105.0277" y2="1105.0277"/></g><g id="elem_t2"><rect fill="url(#gk7z3gkzuix7i1)" height="69.1493" rx="10.4167" ry="10.4167" style="stroke:#33B2E2;stroke-width:1.0416666666666667;" width="231.25" x="1338.0208" y="1052.5451"/><text fill="#000000" font-family="Verdana" font-size="26.0417" lengthAdjust="spacing" textLength="200" x="1353.6458" y="1089.1433">sender balance</text><line style="stroke:#33B2E2;stroke-width:1.0416666666666667;" x1="1339.0625" x2="1568.2292" y1="1105.0277" y2="1105.0277"/></g><g id="elem_t3"><rect fill="url(#gk7z3gkzuix7i1)" height="69.1493" rx="10.4167" ry="10.4167" style="stroke:#33B2E2;stroke-width:1.0416666666666667;" width="143.75" x="639.0625" y="1052.5451"/><text fill="#000000" font-family="Verdana" font-size="26.0417" lengthAdjust="spacing" textLength="112.5" x="654.6875" y="1089.1433">deny list</text><line style="stroke:#33B2E2;stroke-width:1.0416666666666667;" x1="640.1042" x2="781.7708" y1="1105.0277" y2="1105.0277"/></g><g id="elem_t4"><rect fill="url(#gk7z3gkzuix7i1)" height="69.1493" rx="10.4167" ry="10.4167" style="stroke:#33B2E2;stroke-width:1.0416666666666667;" width="186.4583" x="819.7917" y="1052.5451"/><text fill="#000000" font-family="Verdana" font-size="26.0417" lengthAdjust="spacing" textLength="155.2083" x="835.4167" y="1089.1433">value check</text><line style="stroke:#33B2E2;stroke-width:1.0416666666666667;" x1="820.8333" x2="1005.2083" y1="1105.0277" y2="1105.0277"/></g><g id="elem_t5"><rect fill="url(#gk7z3gkzuix7i1)" height="69.1493" rx="10.4167" ry="10.4167" style="stroke:#33B2E2;stroke-width:1.0416666666666667;" width="255.2083" x="639.5833" y="1270.6597"/><text fill="#000000" font-family="Verdana" font-size="26.0417" lengthAdjust="spacing" textLength="223.9583" x="655.2083" y="1307.2579">timestamp check</text><line style="stroke:#33B2E2;stroke-width:1.0416666666666667;" x1="640.625" x2="893.75" y1="1323.1423" y2="1323.1423"/></g><g id="elem_t6"><rect fill="url(#gk7z3gkzuix7i1)" height="69.1493" rx="10.4167" ry="10.4167" style="stroke:#33B2E2;stroke-width:1.0416666666666667;" width="197.9167" x="931.7708" y="1270.6597"/><text fill="#000000" font-family="Verdana" font-size="26.0417" lengthAdjust="spacing" textLength="166.6667" x="947.3958" y="1307.2579">store receipt</text><line style="stroke:#33B2E2;stroke-width:1.0416666666666667;" x1="932.8125" x2="1128.6458" y1="1323.1423" y2="1323.1423"/></g><g id="elem_am1"><rect fill="url(#gk7z3gkzuix7i1)" height="69.1493" rx="10.4167" ry="10.4167" style="stroke:#33B2E2;stroke-width:1.0416666666666667;" width="497.9167" x="1680.7292" y="1270.6597"/><text fill="#000000" font-family="Verdana" font-size="26.0417" lengthAdjust="spacing" textLength="466.6667" x="1696.3542" y="1307.2579">-&gt; eventual of indexer's allocations</text><line style="stroke:#33B2E2;stroke-width:1.0416666666666667;" x1="1681.7708" x2="2177.6042" y1="1323.1423" y2="1323.1423"/></g><g id="elem_em1"><rect fill="url(#gk7z3gkzuix7i1)" height="69.1493" rx="10.4167" ry="10.4167" style="stroke:#33B2E2;stroke-width:1.0416666666666667;" width="641.6667" x="2408.8542" y="1052.5451"/><text fill="#000000" font-family="Verdana" font-size="26.0417" lengthAdjust="spacing" textLength="610.4167" x="2424.4792" y="1089.1433">-&gt; eventuals of sender's accounts and signers</text><line style="stroke:#33B2E2;stroke-width:1.0416666666666667;" x1="2409.8958" x2="3049.4792" y1="1105.0277" y2="1105.0277"/></g><g id="elem_RateLimiter"><rect fill="url(#gk7z3gkzuix7i1)" height="69.1493" rx="10.4167" ry="10.4167" style="stroke:#33B2E2;stroke-width:1.0416666666666667;" width="182.2917" x="17.7083" y="317.2638"/><text fill="#000000" font-family="Verdana" font-size="26.0417" lengthAdjust="spacing" textLength="151.0417" x="33.3333" y="353.862">RateLimiter</text><line style="stroke:#33B2E2;stroke-width:1.0416666666666667;" x1="18.75" x2="198.9583" y1="369.7464" y2="369.7464"/></g><g id="elem_Logging"><rect fill="url(#gk7z3gkzuix7i1)" height="69.1493" rx="10.4167" ry="10.4167" style="stroke:#33B2E2;stroke-width:1.0416666666666667;" width="135.4167" x="54.6875" y="585.5243"/><text fill="#000000" font-family="Verdana" font-size="26.0417" lengthAdjust="spacing" textLength="104.1667" x="70.3125" y="622.1225">Logging</text><line style="stroke:#33B2E2;stroke-width:1.0416666666666667;" x1="55.7292" x2="189.0625" y1="638.0069" y2="638.0069"/></g><!--link r1 to r2--><!--link r2 to r3--><!--reverse link QueryHandler to r2--><g id="link_QueryHandler_r2"><path codeLine="42" d="M2588.4104,411.9561 C2588.5184,413.8783 2588.2783,410.3063 2588.3411,412.2743 C2589.3464,443.7612 2584.1719,480.4878 2559.8958,503.0347 C2528.0521,532.6076 1337.0938,585.868 799.6563,608.4618 " fill="none" id="QueryHandler-backto-r2" style="stroke:#009FDB;stroke-width:3.125;"/><polygon fill="#009FDB" points="2588.0419,405.7169,2584.4352,415.3213,2588.349,410.9162,2592.7541,414.83,2588.0419,405.7169" style="stroke:#009FDB;stroke-width:3.125;"/></g><!--link RateLimiter to Router--><g id="link_RateLimiter_Router"><path codeLine="47" d="M200.4479,351.8368 C206.3906,351.8368 212.3359,351.8368 218.2826,351.8368 C221.2559,351.8368 224.2295,351.8368 227.2033,351.8368 C227.575,351.8368 227.9467,351.8368 228.3185,351.8368 C228.4114,351.8368 228.5043,351.8368 228.5973,351.8368 " fill="none" id="RateLimiter-Router" style="stroke:#009FDB;stroke-width:3.125;stroke-dasharray:7.0,7.0;"/></g><!--link Router to Logging--><g id="link_Router_Logging"><path codeLine="48" d="M228.615,471.5139 C228.4874,472.032 228.3581,472.5495 228.2272,473.0666 C227.7035,475.1347 227.1533,477.1943 226.5753,479.2421 C224.2635,487.4334 221.5078,495.4357 218.2292,503.0347 C204.7708,534.2222 180.2708,563.6493 159.4167,585.0659 " fill="none" id="Router-Logging" style="stroke:#009FDB;stroke-width:3.125;stroke-dasharray:7.0,7.0;"/></g><!--link RateLimiter to Logging--><!--link q2 to q3--><g id="link_q2_q3"><path codeLine="66" d="M1242.1146,351.8368 C1254.1875,351.8368 1260.0104,351.8368 1272.0833,351.8368 " fill="none" id="q2-to-q3" style="stroke:#009FDB;stroke-width:3.125;"/><polygon fill="#009FDB" points="1278.3333,351.8368,1268.9583,347.6701,1273.125,351.8368,1268.9583,356.0034,1278.3333,351.8368" style="stroke:#009FDB;stroke-width:3.125;"/></g><!--link q3 to q4--><g id="link_q3_q4"><path codeLine="67" d="M1495.7604,351.8368 C1507.5938,351.8368 1513.1771,351.8368 1525.0104,351.8368 " fill="none" id="q3-to-q4" style="stroke:#009FDB;stroke-width:3.125;"/><polygon fill="#009FDB" points="1531.2604,351.8368,1521.8854,347.6701,1526.0521,351.8368,1521.8854,356.0034,1531.2604,351.8368" style="stroke:#009FDB;stroke-width:3.125;"/></g><!--link q4 to q5--><g id="link_q4_q5"><path codeLine="68" d="M1796.5938,351.8368 C1808.5625,351.8368 1814.2708,351.8368 1826.2396,351.8368 " fill="none" id="q4-to-q5" style="stroke:#009FDB;stroke-width:3.125;"/><polygon fill="#009FDB" points="1832.4896,351.8368,1823.1146,347.6701,1827.2813,351.8368,1823.1146,356.0034,1832.4896,351.8368" style="stroke:#009FDB;stroke-width:3.125;"/></g><!--link q4 to AttestationSigners--><g id="link_q4_AttestationSigners"><path codeLine="70" d="M1664.0625,386.8993 C1664.0625,439.8993 1664.0625,545.7925 1664.0625,639.0555 C1664.0625,650.7134 1664.0625,662.1739 1664.0625,673.3091 C1664.0625,678.8767 1664.0625,684.363 1664.0625,689.7519 C1664.0625,692.4464 1664.0625,688.8666 1664.0625,691.5104 " fill="none" id="q4-to-AttestationSigners" style="stroke:#009FDB;stroke-width:3.125;"/><polygon fill="#009FDB" points="1664.0625,697.7604,1668.2292,688.3854,1664.0625,692.552,1659.8958,688.3854,1664.0625,697.7604" style="stroke:#009FDB;stroke-width:3.125;"/></g><!--link q2 to TAP--><g id="link_q2_TAP"><path codeLine="71" d="M1113.5,386.8576 C1214.4271,470.868 1470.1563,700.0034 1585.9375,953.5868 C1587.459,956.9188 1588.8682,960.3423 1590.1731,963.8335 C1590.8256,965.5791 1591.452,967.3416 1592.0533,969.118 C1592.1285,969.3401 1590.2214,963.6349 1590.2958,963.8574 " fill="none" id="q2-to-TAP" style="stroke:#009FDB;stroke-width:3.125;"/><polygon fill="#009FDB" points="1592.2777,969.7848,1593.2565,959.5724,1590.6261,964.8453,1585.3532,962.2149,1592.2777,969.7848" style="stroke:#009FDB;stroke-width:3.125;"/></g><!--link QueryHandler to AttestationSigners--><!--link t1 to AllocationMonitor--><g id="link_t1_AllocationMonitor"><path codeLine="83" d="M1224.5104,1122.1284 C1251.8438,1137.9722 1286.5938,1155.118 1320.3125,1163.368 C1343.9271,1169.1388 2176.9792,1155.743 2195.3125,1171.7013 C2200.8398,1176.5099 2202.1709,1176.7347 2205.7545,1182.9132 " fill="none" id="t1-to-AllocationMonitor" style="stroke:#009FDB;stroke-width:3.125;"/><polygon fill="#009FDB" points="2208.8902,1188.3196,2207.7909,1178.1195,2206.2771,1183.8143,2200.5823,1182.3005,2208.8902,1188.3196" style="stroke:#009FDB;stroke-width:3.125;"/></g><!--link t2 to EscrowMonitor--><g id="link_t2_EscrowMonitor"><path codeLine="84" d="M1470.2083,1052.0763 C1490.9688,1013.7847 1530.6042,957.0138 1585.5938,950.8159 C1605.875,948.5243 3034.75,948.5243 3055.0313,950.8159 C3060.5417,951.4305 3063.4271,949.5243 3067.1875,953.5868 C3069.6146,956.2104 3071.8228,958.9954 3073.8295,961.9132 C3074.8328,963.3721 3075.7858,964.8642 3076.6907,966.3859 C3077.1431,967.1467 3077.5834,967.915 3078.012,968.6902 C3078.2263,969.0778 3075.4977,963.9518 3075.7061,964.3428 " fill="none" id="t2-to-EscrowMonitor" style="stroke:#009FDB;stroke-width:3.125;"/><polygon fill="#009FDB" points="3078.6461,969.8582,3077.913,959.6252,3076.1961,965.2621,3070.5592,963.5452,3078.6461,969.8582" style="stroke:#009FDB;stroke-width:3.125;"/></g><!--link a1 to a2--><!--link a1 to a3--><!--link AttestationSigners to TAP--><!--link a2 to AllocationMonitor--><g id="link_a2_AllocationMonitor"><path codeLine="96" d="M1931.2083,1122.0972 C1966.4896,1137.5138 2010.3958,1154.2951 2051.5625,1163.368 C2067.1875,1166.8055 2183.5,1160.9097 2195.3125,1171.7013 C2198.0169,1174.1714 2200.4635,1176.839 2202.6737,1179.6705 C2203.7788,1181.0862 2204.8248,1182.543 2205.8144,1184.0364 C2206.3093,1184.7832 2206.79,1185.5391 2207.2569,1186.3037 C2207.4904,1186.686 2207.7204,1187.0705 2207.947,1187.457 C2208.0603,1187.6503 2205.0598,1182.4246 2205.1714,1182.6189 " fill="none" id="a2-to-AllocationMonitor" style="stroke:#009FDB;stroke-width:3.125;"/><polygon fill="#009FDB" points="2208.2844,1188.0385,2207.228,1177.8338,2205.6903,1183.5222,2200.0019,1181.9844,2208.2844,1188.0385" style="stroke:#009FDB;stroke-width:3.125;"/></g><!--link EscrowMonitor to AllocationMonitor--><!--SRC=[ZLPBRzj64BxlhvZgOi2Dv4YoUmW20sdGf0KSn8tSN8eULkI8sch9fNQNSjJ2_xtVxkf1KWnG7GnwvflNDm_oYfuC5LonbPv9qkBhHrefpQ-eSKn-pRGoMfjdLHMKcRAKLVv6N56jPUMRKbFEJXNLf0xFO-zs1PIVxTdww-AzoPduc-VAALFHw36O_l7fOKJUK6rvf_WvGdCb2ojBE40GMDJ6Ub8-m93LH8WVW2gPbhfX0FV2RLHLIvXGfgLp7qpbtnjjBENIRXOQ1NtimXvbjf451-12_SCqVpsi_5zUVZOsPvkWImrP2_Aal3w7kNqzf1gs_BpycpD_CftT3UhQji87ZtHz_LkLypUsrzT2r2b5-c8QpvR-5OIVYUOquYglZQgy6v5qPAS7TVZTPCPv6j-JOxl3E1J6IYhHGEtE6EUbRrn0eGlrcghGO1M2Xo59sZDwnpRs7V3Zuu-OcXfPS9KfRa5LjJ81LpTBhJBQy9vadbjsBKp9tgeiHg-jmNzhHYu7QOIznB_U545dMyKTwy-bb-IQPSp-GCAiXKj57lKtAhzve_8Gi6jumhzSH4ZiLUoVZTtqGytxeOwuq-_4_q7JXRFBh7cc0NZIzF9w4Iy2A_MqPcpaQAroq3uYonXizCAjLUr8MiGodjpQF5TePNiTNy5usVWWsaSWDZiFEubkOH6hBEsvbdlCsaHWdCP_fYX_vV0s1hS2zFQ5Sv5cSn9qJOqQVc_Oxd_5wcksGXoe_8BrUr2b0l8eUZ15WK4J1mSqqRpoamxog3bXMyf-9YTtnvrfvz7R79T9BIt8orZLdjOiSG4mp1asmCRkRgVqzkq7nWfOlh_l66FwrMeVRvlp1aGUt2IxMGUBqSumzhGDkIJ0l0F8BCTxxJs7XKCd4-gsWxACF58tiKMDFiIw2oC14hYTAv9YoyRlQnQjcvDSjN69aluL2hBBYuWusraOKAI_dSU7Mx6zZGztGhIfdYJnktD52xnOS35wABWRnyu1_FJkiQFjztR0sQdDiErrL-8zbqKmiLQ5McgEVFbfTmZ2vKA160KCVq9qkuS4zgILItJxRkTs4bj3sPgpJL9tM-PL6L8kwpRahfl0nVJudmBJg6ZYfv74KoMVJAK0JxhOYL_YaJZAJtHSKjLZ9rUknbOHlW20JzCkfzyRTXnVSj4FlXyidQbDThEXOGxuw2jXvg4cUN5EO3iWd8SApr8SbC7cNyecSZRCs9cPlgf73Anvn_WQafhCAhq8sLwvLj7fyijo6aew-kqquli-NN2QPYxup3BJuDMTpaWg8JhdvBphjByE5qN-1m00]--></g></svg>